<?xml version="1.0" encoding="UTF-8"?>
<svg id="_레이어_2" data-name="레이어 2" xmlns="http://www.w3.org/2000/svg" viewBox="0 0 316.23 78.09">
  <defs>
    <style>
      .cls-1 {
        fill: #fff;
      }
    </style>
  </defs>
  <g id="Layer_1" data-name="Layer 1">
    <g>
      <g>
        <g>
          <g>
            <path class="cls-1" d="M9.27,33.11c-.22,1.11-.93,1.84-1.89,1.65-.99-.19-1.43-1.23-1.23-2.18.04-.22.11-.42.24-.6-.1.74.19,1.62,1.01,1.78.75.15,1.16-.32,1.3-1,.04-.2.06-.41.07-.6l-3.86-.76c-.48-.1-.82-.17-1.17.23h-.03s.34-1.69.34-1.69h.03c.07.47.71.54,1.1.62l3.23.64c.38.08,1,.25,1.26-.14h.02s-.42,2.06-.42,2.06Z"/>
            <path class="cls-1" d="M3.54,38.92c-.49-.39-.68-1.11-.66-1.72.02-.57.23-1.17.66-1.55.52-.44,1.11-.41,1.73-.38l2.33.07c.39.01,1.03.1,1.21-.34h.02l-.06,1.64h-.02c-.16-.44-.79-.41-1.18-.42l-2.33-.07c-1.16-.04-1.72.43-1.75,1.31-.01.49.17.99.56,1.28.26.2.48.2.79.21l2.63.09c.39,0,1.03.08,1.21-.34h.03s-.06,1.64-.06,1.64h-.03c-.15-.44-.79-.41-1.19-.42l-3.29-.11c-.39,0-1.03-.08-1.2.35h-.03l.04-1.27.57.02Z"/>
            <path class="cls-1" d="M8.15,44.21c.3-.38.43-.94.37-1.42-.06-.49-.34-1.08-.93-1-1.19.15-.78,3.1-2.38,3.3-.93.12-1.92-.73-2.1-2.06-.07-.53-.06-1.06.06-1.57l1.05-.39c-.38.57-.56,1.31-.47,1.98.06.49.45,1.19,1.06,1.11,1.35-.18.72-3.1,2.56-3.33,1.09-.13,1.65.91,1.79,1.96.06.43.05.87-.02,1.3l-.98.12Z"/>
            <path class="cls-1" d="M7.24,48.46l-.47-1.64,2.35.23-1.88,1.41ZM6.69,48.88l-1.06.78c-.52.39-.59.48-.9.12h-.02s.49,1.71.49,1.71h.02c.11-.55.54-.83.96-1.16l3.81-2.95-.38-1.31h-.03c-.01.44-.41.39-.74.35l-3.9-.4c-.53-.05-1.04-.06-1.42-.47h-.02s.43,1.54.43,1.54h.03c.04-.45.3-.46.82-.42l1.3.09.61,2.11Z"/>
            <path class="cls-1" d="M6.82,52.3c-.44.21-.76.36-.8.89h-.02s-.68-1.37-.68-1.37h.02c.44.28.76.13,1.2-.08l3.13-1.51c.44-.22.76-.37.79-.89h.02s.56,1.12.56,1.12h-.01c-.08.08-.1.13-.14.22l-.1.19-2.22,4.6,2.97-1.44c.45-.21.76-.36.79-.88h.02s.67,1.36.67,1.36h-.02c-.44-.28-.75-.13-1.19.08l-4.4,2.13c-.08-.64.06-1.01.33-1.57l2.1-4.32-3.04,1.47Z"/>
            <path class="cls-1" d="M11.73,60.73c-.36.32-.63.55-.52,1.07l-.02.02-1.04-1.14.02-.02c.51.16.77-.07,1.13-.39l2.59-2.31c.36-.32.62-.56.51-1.06l.02-.02.86.94h0c-.06.09-.07.15-.08.25l-.05.2-.86,5.03,2.46-2.2c.36-.33.63-.55.51-1.06l.02-.02,1.03,1.13-.02.02c-.5-.16-.76.06-1.12.39l-3.64,3.25c-.26-.6-.23-.99-.11-1.61l.82-4.72-2.51,2.24Z"/>
            <path class="cls-1" d="M18.93,65.54l-1.36-1.05,2.03-1.19-.68,2.24ZM18.74,66.2l-.39,1.25c-.19.62-.19.74-.65.63l-.02.02,1.42,1.09.02-.02c-.24-.5-.06-.98.08-1.49l1.32-4.61-1.09-.84-.02.03c.25.36-.11.54-.4.71l-3.39,1.96c-.46.27-.88.56-1.44.46v.02s1.26.97,1.26.97v-.02c-.22-.38-.02-.54.43-.81l1.11-.69,1.74,1.34Z"/>
            <path class="cls-1" d="M21.69,69.37c-.26.43-.43.72-.17,1.18v.02s-1.51-.86-1.51-.86v-.02c.47.08.75-.5.95-.84l1.96-3.34-.66-.38c-.33-.18-.71-.3-1.07-.22h-.03s.79-.75.79-.75h.02c.07.11.17.16.25.23l.19.11,2.81,1.62c.13.07.25.13.38.14h.02s-.76.77-.76.77h-.02c.05-.33-.23-.55-.47-.69l-.68-.38-2,3.41Z"/>
            <path class="cls-1" d="M25.81,67.69c.16-.36.47-.92.13-1.25v-.02s1.53.66,1.53.66v.02c-.48-.02-.69.59-.84.94l-1.32,2.99c-.16.36-.46.91-.13,1.24v.02s-1.53-.66-1.53-.66v-.02c.48.03.68-.58.84-.93l1.33-2.99Z"/>
            <path class="cls-1" d="M30.65,68.66c1.33.36,1.78,1.76,1.44,2.97-.35,1.24-1.43,1.95-2.71,1.59-1.32-.36-1.81-1.8-1.49-2.96.36-1.26,1.45-1.96,2.76-1.6ZM30.88,68.07c-1.75-.53-3.52.41-3.96,2-.49,1.71.59,3.28,2.25,3.74,1.67.47,3.44-.38,3.92-2.08.43-1.5-.44-3.18-2.21-3.66Z"/>
            <path class="cls-1" d="M34.51,73.6c-.04.49-.07.83.37,1.13v.03s-1.55-.12-1.55-.12v-.02c.48-.23.51-.58.55-1.06l.25-3.44c.04-.49.06-.83-.37-1.12v-.02l1.27.1h0c.03.11.06.16.11.23l.11.18,2.89,4.22.25-3.28c.04-.48.07-.83-.38-1.12v-.02s1.54.11,1.54.11v.03c-.47.22-.5.57-.54,1.06l-.36,4.84c-.61-.25-.85-.55-1.2-1.07l-2.7-3.98-.25,3.34Z"/>
            <path class="cls-1" d="M43.16,72.02l-1.71.17.64-2.25,1.08,2.08ZM43.48,72.64l.59,1.16c.3.58.38.67-.03.9v.03s1.79-.18,1.79-.18v-.02c-.53-.2-.74-.66-.98-1.13l-2.26-4.24-1.37.14v.03c.43.08.31.46.21.79l-1.08,3.74c-.14.51-.24,1.01-.72,1.31v.02s1.6-.16,1.6-.16v-.03c-.44-.11-.4-.37-.27-.87l.32-1.26,2.2-.22Z"/>
            <path class="cls-1" d="M48.7,73.09c.59-.12,1.03-.44,1.36-.91h.02s-.13,1.22-.13,1.22l-3.47.92v-.03c.38-.26.16-.87.06-1.25l-.84-3.15c-.11-.38-.22-1.01-.7-1.05v-.03s1.61-.43,1.61-.43v.02c-.38.27-.16.88-.06,1.25l.99,3.64,1.17-.22Z"/>
            <path class="cls-1" d="M57.3,69.36c-.1.62-.63,1.14-1.16,1.44-.5.27-1.13.4-1.68.22-.65-.22-.91-.73-1.21-1.28l-1.12-2.03c-.19-.34-.44-.92-.91-.86v-.02s1.45-.79,1.45-.79v.02c-.29.35.06.88.25,1.22l1.12,2.03c.56,1.01,1.25,1.25,2.03.82.43-.23.77-.64.83-1.13.04-.32-.07-.51-.22-.78l-1.26-2.29c-.19-.34-.45-.92-.91-.86v-.02s1.44-.79,1.44-.79l.02.02c-.31.35.04.88.23,1.23l1.58,2.87c.19.34.45.92.92.85v.02s-1.12.61-1.12.61l-.27-.5Z"/>
            <path class="cls-1" d="M60.18,66.75c.31.37.53.65,1.06.56l.02.02-1.19.99v-.02c.17-.5-.06-.77-.37-1.14l-2.24-2.66c-.31-.36-.53-.63-1.05-.54v-.02s.96-.81.96-.81h0c.09.07.14.08.24.09l.21.06,5.04,1.04-2.12-2.51c-.31-.38-.53-.64-1.05-.55v-.02s1.17-.98,1.17-.98v.02c-.17.49.06.75.37,1.12l3.14,3.73c-.61.24-1,.19-1.61.05l-4.74-.99,2.17,2.57Z"/>
            <path class="cls-1" d="M62.48,60.09c-.3-.26-.74-.73-1.16-.51l-.02-.02,1.1-1.23.02.02c-.17.43.35.82.64,1.08l2.46,2.17c.3.26.73.72,1.15.5l.02.02-1.1,1.23-.02-.02c.17-.42-.35-.81-.64-1.07l-2.46-2.17Z"/>
            <path class="cls-1" d="M66.14,55.81c-.37-.55-.79-1.19-1.28-.88h-.02s.74-1.07.74-1.07l3.61,5.28c-.68.27-.85.39-1.56.21l-3.68-.95c-.46-.12-.96-.3-1.42-.16h-.02s.73-1.05.73-1.05l.08.07c.16.11.61.22.8.26l3.91,1.02-1.9-2.74Z"/>
            <path class="cls-1" d="M70.69,54.65l.58-.94c.3-.49.4-1.11.25-1.67v-.02s.87.84.87.84l-1.6,3.24h-.02c.06-.48-.55-.71-.9-.88l-2.96-1.43c-.36-.17-.91-.5-1.26-.17l-.02-.02,1.22-2.49c.06-.13.15-.25.14-.38v-.03s.93.45.93.45v.02c-.41.11-.6.41-.78.77-.13.27-.26.55-.34.82l1.46.71.46-.93c.06-.12.12-.25.12-.37v-.02s.84.41.84.41v.02c-.3.02-.45.35-.57.58l-.28.58,1.86.9Z"/>
            <path class="cls-1" d="M67.95,48.04c.36-1.1,1.14-1.51,1.9-1.27.73.24,1.09,1.05,1.03,1.78l1.89-.7c.54-.21,1.15-.58,1.61-.96l-.25.75c-.14.44-.34.68-.73.82l-1.59.6-1.42.38c.12-.69.06-1.56-.72-1.81-.6-.19-1.12.21-1.27.77-.06.19-.09.38-.12.58l3.72,1.2c.38.12.97.37,1.26,0h.02s-.52,1.58-.52,1.58h-.02c-.01-.47-.65-.62-1.02-.74l-3.13-1c-.38-.13-.97-.38-1.27-.01h-.02s.64-1.97.64-1.97Z"/>
            <path class="cls-1" d="M70.29,42.45c-.4.28-.68.78-.76,1.26-.08.49,0,1.13.6,1.22,1.18.2,1.65-2.75,3.24-2.49.93.15,1.62,1.25,1.41,2.58-.08.52-.25,1.03-.51,1.49l-1.12.07c.52-.43.92-1.08,1.02-1.75.08-.49-.09-1.27-.69-1.37-1.34-.22-1.59,2.76-3.42,2.46-1.09-.18-1.32-1.34-1.15-2.39.07-.42.2-.85.4-1.24l.97.16Z"/>
            <path class="cls-1" d="M70.54,40.96c-.4-.02-1.04-.12-1.23.31h-.02l.09-1.63h.02c.14.44.79.43,1.18.45l3.28.19c.4.02,1.03.11,1.22-.31h.02l-.09,1.63h-.03c-.13-.44-.78-.43-1.17-.45l-3.29-.19Z"/>
            <path class="cls-1" d="M73.88,36.49c.5-.03.84-.04,1.08-.51h.03s.09,1.72.09,1.72h-.03c-.19-.42-.82-.34-1.21-.31l-3.89.2.04.77c.02.37.14.75.4,1v.03s-1.05-.25-1.05-.25v-.03c.04-.1.03-.22.04-.33v-.22s-.19-3.22-.19-3.22c0-.15-.02-.28-.08-.39v-.03s1.05.23,1.05.23v.02c-.3.13-.32.48-.31.76l.04.78,3.98-.21Z"/>
            <path class="cls-1" d="M73.11,31.31c.51-.1.77-.15.99-.65h.03s.34,1.64.34,1.64h-.03c-.3-.37-.84-.19-1.25-.11l-1.26.26-2,1.87c-.33.3-.58.53-.72.98l-.16-.77c-.06-.27-.05-.53.11-.68l1.95-1.81-1.81-.73c-.24-.1-.69-.21-.83.31h-.02s-.31-1.48-.31-1.48l3.6,1.45,1.35-.28Z"/>
            <path class="cls-1" d="M9.31,25.16c0,.41-.34.75-.75.75s-.76-.34-.76-.75.33-.75.76-.75.75.34.75.75Z"/>
            <path class="cls-1" d="M70.36,25.16c0,.41-.34.75-.75.75s-.76-.34-.76-.75.34-.75.76-.75.75.34.75.75Z"/>
          </g>
          <path class="cls-1" d="M41.26,3.78h-.74v-1.78h-.89v4.61c-.3.32-.81.3-.81.3h-2.49s-.07-.03-.07-.07v-3.6h2.67v-.71h-3.56v4.31c0,.43.35.77.78.77h2.64s.44.04.84-.19v2.48h.89v-5.42h.74v5.42h.88V2h-.88v1.78Z"/>
          <polygon class="cls-1" points="12.52 20.57 14.77 18.1 16.76 19.87 17.35 19.22 15.37 17.45 17.62 14.98 17.08 14.5 11.99 20.1 12.52 20.57"/>
          <path class="cls-1" d="M11.47,18.43c.32.29.81.26,1.1-.06l2.84-3.11c.29-.32.26-.81-.06-1.1l-2.22-1.99-.6.65.9.8-2.7,2.96-.9-.81-.59.65,2.23,2ZM13.97,14.1l.79.71s.03.07,0,.09l-2.61,2.86s-.07.03-.09,0l-.79-.71,2.7-2.96Z"/>
          <polygon class="cls-1" points="26.55 4.15 25.75 4.51 28.1 9.75 28.91 9.39 27.58 6.42 28.65 5.95 28.36 5.3 27.29 5.77 26.55 4.15"/>
          <path class="cls-1" d="M25.26,12.41l-.87-1.94-.81.36.87,1.94c.18.39.64.57,1.03.39l4.28-1.89-.29-.65-4.12,1.82s-.07,0-.09-.03Z"/>
          <path class="cls-1" d="M23.32,6.62l-.31-.7-.81.36.32.7c.93,2.07-.87,3.38-1,3.47l.79.3c.41-.36,1.26-1.24,1.33-2.35.89.69,2.1.65,2.65.58l.3-.78c-.18.04-2.35.47-3.27-1.58Z"/>
          <g>
            <polygon class="cls-1" points="65.14 16.89 64.55 16.26 62.28 18.36 61.55 17.58 63.81 15.49 63.22 14.85 60.96 16.95 59.68 15.6 59.17 16.08 64.23 21.44 64.74 20.97 62.88 18.99 65.14 16.89"/>
            <path class="cls-1" d="M65.8,17.75c-.92.85-1.66,1.12-1.66,1.12l.6.64s.74-.27,1.66-1.12l2.29-2.13h0s0,0,0,0l-4-4.24-.51.48,3.4,3.61-1.78,1.65Z"/>
          </g>
          <g>
            <polygon class="cls-1" points="57.06 9.04 57.35 8.39 56.26 7.92 56.98 6.3 56.16 5.95 54.29 10.22 55.11 10.57 55.98 8.58 57.06 9.04"/>
            <polygon class="cls-1" points="54.96 10.89 49.82 8.67 49.53 9.33 53.87 11.19 52.99 13.19 53.81 13.54 54.96 10.89 54.96 10.89 54.96 10.89"/>
            <path class="cls-1" d="M55.24,6.33l-2.06-.89.36-.81-.82-.35-.36.81-2.06-.88-.29.66,1,.43c-.37.17-.67.46-.84.84-.4.92.11,2.02,1.13,2.46,1.03.44,2.18.05,2.58-.86.17-.38.17-.8.05-1.19l1,.43.28-.66ZM51.61,7.94c-.57-.25-.84-.9-.59-1.45.24-.56.91-.81,1.48-.56.57.25.84.9.59,1.45-.24.56-.91.81-1.48.56Z"/>
          </g>
          <g>
            <path class="cls-1" d="M78.09,39.04c0,21.56-17.48,39.04-39.04,39.04S0,60.61,0,39.04,17.48,0,39.04,0s39.04,17.48,39.04,39.04ZM39.04.53C17.77.53.53,17.77.53,39.04s17.24,38.51,38.51,38.51,38.51-17.24,38.51-38.51S60.31.53,39.04.53Z"/>
            <path class="cls-1" d="M67.34,39.04c0,15.63-12.67,28.29-28.29,28.29s-28.3-12.67-28.3-28.29,12.67-28.29,28.3-28.29,28.29,12.67,28.29,28.29ZM39.04,11.28c-15.33,0-27.77,12.43-27.77,27.76s12.43,27.76,27.77,27.76,27.76-12.43,27.76-27.76-12.43-27.76-27.76-27.76Z"/>
          </g>
        </g>
        <g>
          <path class="cls-1" d="M56.67,54.4h-13.13c-4.06.03-4.57,2.7-4.57,2.7-.83-3.04-4.74-2.71-4.74-2.71h-12.84v-18.83h12.38c4.12.08,5.21,3.34,5.21,3.34,1.35-3.3,5.6-3.33,5.6-3.33h12.08s0,18.83,0,18.83ZM43.75,33.69c-3.61.11-4.74,2.23-4.74,2.23-1.15-2.22-4.62-2.22-4.62-2.22h-14.88v22.56h14.57c1.99,0,2.69.93,2.92,1.6h4.02c.7-1.69,2.73-1.59,2.73-1.59h14.81v-22.58h-14.81Z"/>
          <path class="cls-1" d="M31.39,44.24h-5.43v5.46h0s7.47,0,7.47,0v-.02h0v-3.57h1.89v3.59h7.45v-3.59h1.89v3.58h7.46v-1.89h-5.41v-1.69h5.42v-5.67h-7.46v3.79h-1.89v-3.79h-2.04v3.79h-3.38v-3.79h-2.04v3.79h-1.88v-3.79h-7.47v1.88h5.43v1.91ZM31.4,47.83h-3.39v-1.71h3.39v1.71ZM40.74,47.83h-3.38v-1.71h3.38v1.71ZM46.7,42.32h3.38v1.91h-3.38v-1.91Z"/>
          <g>
            <polygon class="cls-1" points="37.92 23.25 39.72 22.65 37.92 22.65 37.92 23.25"/>
            <path class="cls-1" d="M34.02,25.83c.66-.7,1.36-.61,1.36-.31s-.34.65-.34.65h-4.28l-2.35-3.38h0c-.58-.87-1.33-1.25-2.58-1.25h-6.31v10.18c3.83,0,13.27,0,14.38,0,4.25.04,5.08,1.85,5.08,1.85.89-1.41,2.6-1.84,5.25-1.84h14.34v-10.19h-6.39c-1.23,0-1.98.38-2.57,1.25h0l-2.4,3.38h-3.55v-3.01l2.43-2.38h-2.51s.63-.55.63-.55h-5.09c-1.02,0-1.83.42-2.12,1h-1.79c-1.65,0-2.25.93-1.91,2.15l.73,2.46ZM56.67,29.86h-11.98c-3.19,0-4.68.22-5.7,1.32-1.09-1.06-1.95-1.31-5.14-1.31h-12.46v-6.43h3.92c.39,0,.71.08.92.19.16.09.44.28.65.56.26.36,2.58,3.76,2.58,3.76h6.69s.62-1.29,1-2.19c.39-.91.26-1.54-.57-1.61-.7-.05-1.14.11-1.21.4l-.3-1.01c-.18-.51-.05-.89.66-.89h2.17s.04-.7,1.24-.7h3.57l-1.01.93v5.07h6.94s2.21-3.4,2.47-3.76c.2-.28.49-.47.64-.56.21-.11.53-.21.92-.21h3.99v6.45Z"/>
          </g>
          <path class="cls-1" d="M36.04,51.71c.26-.09.49-.27.62-.5h.01v1.61c0,.16-.01.29.14.39h0s-.6.01-.6.01h0c.18-.1.16-.23.16-.4v-1.1h-.33Z"/>
          <path class="cls-1" d="M37.51,53.1c.47-.09.88-.51.88-.99,0-.29-.16-.61-.5-.61-.25,0-.42.19-.42.43,0,.26.17.47.44.47.11,0,.21-.03.3-.09l-.19.24c-.07.03-.16.04-.24.04-.34,0-.6-.25-.6-.59,0-.42.34-.7.75-.7.45,0,.75.35.75.78,0,.32-.18.64-.43.84-.26.21-.56.31-.88.35l.14-.18Z"/>
          <path class="cls-1" d="M39.8,52.6c-.25,0-.46-.01-.61-.02l.61-1.03v1.05ZM39.8,52.83v.07c0,.15.02.25-.14.31h0s.56.01.56.01h0c-.13-.07-.13-.21-.13-.33v-.06h.23l.14-.34c-.1.08-.23.12-.37.12v-1.26h-.4l-.89,1.49h1.01Z"/>
          <path class="cls-1" d="M41.84,51.47c-.19.03-.42.17-.56.3-.2.18-.31.42-.31.69,0,.29.17.61.5.61.25,0,.4-.19.4-.44,0-.28-.15-.47-.44-.47-.11,0-.22.03-.32.09l.19-.23c.08-.04.16-.05.25-.05.36,0,.62.24.62.6,0,.4-.32.69-.72.69-.45,0-.77-.36-.77-.8,0-.68.69-1.12,1.31-1.18l-.14.18Z"/>
        </g>
      </g>
      <g>
        <path class="cls-1" d="M95.66,56.39c2.13,0,3.75,1.03,3.75,2.87s-1.75,3.08-3.6,3.08c-.41,0-.82-.05-1.2-.23,1.41-.08,2.93-.95,2.93-2.52,0-1.44-1.02-2.01-2.33-2.01-.4,0-.77.03-1.15.1v7.38c0,.92-.02,1.57.85,2.06v.05h-3.26v-.05c.83-.3.74-1.51.74-2.24v-6.17c0-.74.1-1.93-.72-2.26v-.05h3.97Z"/>
        <path class="cls-1" d="M107.77,66.08c-.72.95-2.06,1.34-3.21,1.34-1.08,0-2.22-.34-2.96-1.14-.87-.95-.83-2.04-.83-3.22v-4.38c0-.74.12-1.93-.72-2.24v-.05h3.11v.05c-.82.31-.72,1.5-.72,2.24v4.38c0,2.17.92,3.19,2.61,3.19.92,0,1.84-.38,2.39-1.15.36-.49.35-.9.35-1.49v-4.92c0-.74.1-1.93-.72-2.24v-.05h3.11v.05c-.81.31-.72,1.5-.72,2.26v6.17c0,.73-.09,1.93.74,2.24v.05h-2.4v-1.08Z"/>
        <path class="cls-1" d="M118.38,58.34c-.63-.65-1.65-1.02-2.57-1.02s-2.12.35-2.12,1.48c0,2.24,5.63,2.21,5.63,5.24,0,1.75-1.83,3.38-4.38,3.38-.99,0-1.99-.14-2.93-.49l-.47-2.05c.96.83,2.31,1.36,3.58,1.36.94,0,2.35-.55,2.35-1.71,0-2.55-5.63-2.09-5.63-5.56,0-2.06,2.11-2.85,4.11-2.85.82,0,1.66.11,2.44.36v1.85Z"/>
        <path class="cls-1" d="M126.32,61.91h-3.22l1.62-4.12,1.6,4.12ZM126.8,63.12l.88,2.31c.45,1.14.58,1.33-.22,1.69v.05h3.35v-.05c-.93-.48-1.23-1.39-1.6-2.33l-3.41-8.4h-2.59v.05c.79.24.48.94.25,1.52l-2.73,6.82c-.36.93-.63,1.85-1.59,2.33v.05h3.02v-.05c-.79-.3-.68-.77-.33-1.69l.85-2.31h4.12Z"/>
        <path class="cls-1" d="M133.08,65.03c0,.92-.02,1.57.85,2.08v.05h-2.9v-.05c.87-.51.87-1.16.87-2.08v-6.53c0-.91,0-1.57-.85-2.05v-.05h2.39v.02c.07.2.13.28.24.4l.23.33,6,7.55v-6.2c0-.91.01-1.57-.86-2.05v-.05h2.88v.05c-.85.49-.85,1.14-.85,2.05v9.19c-1.16-.4-1.66-.93-2.39-1.87l-5.61-7.12v6.33Z"/>
        <path class="cls-1" d="M149.75,65.03c0,.92-.02,1.57.84,2.08v.05h-2.89v-.05c.87-.51.87-1.16.87-2.08v-6.53c0-.91,0-1.57-.85-2.05v-.05h2.39v.02c.07.2.13.28.25.4l.23.33,5.99,7.55v-6.2c0-.91.01-1.57-.85-2.05v-.05h2.87v.05c-.85.49-.85,1.14-.85,2.05v9.19c-1.17-.4-1.67-.93-2.39-1.87l-5.61-7.12v6.33Z"/>
        <path class="cls-1" d="M165.66,61.91h-3.22l1.62-4.12,1.61,4.12ZM166.13,63.12l.88,2.31c.44,1.14.57,1.33-.23,1.69v.05h3.35v-.05c-.93-.48-1.23-1.39-1.6-2.33l-3.41-8.4h-2.58v.05c.78.24.48.94.24,1.52l-2.74,6.82c-.36.93-.64,1.85-1.59,2.33v.05h3.01v-.05c-.78-.3-.67-.77-.33-1.69l.85-2.31h4.13Z"/>
        <path class="cls-1" d="M173.79,65.03c0,.94-.01,1.57.85,2.08v.05h-3.23v-.05c.81-.31.72-1.51.72-2.24v-7.3h-1.44c-.71,0-1.44.18-1.95.66h-.05l.58-1.96h.05c.19.08.41.08.63.11h6.51c.28,0,.54-.01.75-.11h.05l-.53,1.96h-.05c-.21-.57-.87-.66-1.41-.66h-1.47v7.46Z"/>
        <path class="cls-1" d="M179.14,58.7c0-.75.12-1.95-.71-2.26v-.05h3.1v.05c-.81.31-.72,1.52-.72,2.26v6.17c0,.73-.1,1.93.72,2.24v.05h-3.1v-.05c.8-.3.71-1.51.71-2.24v-6.17Z"/>
        <path class="cls-1" d="M188.38,57.3c2.59,0,4.12,2.3,4.12,4.7s-1.59,4.26-4.08,4.26-4.19-2.36-4.19-4.64c0-2.47,1.62-4.31,4.15-4.31ZM188.5,56.12c-3.43-.08-6.12,2.52-6.12,5.63,0,3.36,2.72,5.68,5.96,5.68s6.03-2.42,6.03-5.76c0-2.94-2.43-5.56-5.87-5.55Z"/>
        <path class="cls-1" d="M196.92,65.03c0,.92-.02,1.57.85,2.08v.05h-2.89v-.05c.86-.51.86-1.16.86-2.08v-6.53c0-.91,0-1.57-.85-2.05v-.05h2.38v.02c.06.2.13.28.24.4l.23.33,5.99,7.55v-6.2c0-.91.02-1.57-.85-2.05v-.05h2.88v.05c-.85.49-.85,1.14-.85,2.05v9.19c-1.17-.4-1.67-.93-2.39-1.87l-5.62-7.12v6.33Z"/>
        <path class="cls-1" d="M212.76,61.91h-3.22l1.62-4.12,1.6,4.12ZM213.23,63.12l.88,2.31c.45,1.14.57,1.33-.22,1.69v.05h3.35v-.05c-.93-.48-1.22-1.39-1.6-2.33l-3.41-8.4h-2.59v.05c.79.24.48.94.25,1.52l-2.73,6.82c-.36.93-.64,1.85-1.58,2.33v.05h3v-.05c-.79-.3-.67-.77-.34-1.69l.86-2.31h4.12Z"/>
        <path class="cls-1" d="M222.46,65.99c1.11.06,2.08-.31,2.9-1h.05l-.84,2.18h-6.73v-.05c.83-.3.74-1.51.74-2.24v-6.17c0-.75.1-1.95-.74-2.26v-.05h3.13v.05c-.85.31-.72,1.52-.72,2.26v7.14l2.22.15Z"/>
        <path class="cls-1" d="M237.63,66.08c-.72.95-2.06,1.34-3.21,1.34s-2.22-.34-2.96-1.14c-.87-.95-.84-2.04-.84-3.22v-4.38c0-.74.12-1.93-.72-2.24v-.05h3.11v.05c-.81.31-.72,1.5-.72,2.24v4.38c0,2.17.91,3.19,2.6,3.19.91,0,1.85-.38,2.39-1.15.35-.49.34-.9.34-1.49v-4.92c0-.74.1-1.93-.72-2.24v-.05h3.11l.02.05c-.84.31-.74,1.5-.74,2.26v6.17c0,.73-.1,1.93.74,2.24v.05h-2.41v-1.08Z"/>
        <path class="cls-1" d="M243.56,65.03c0,.92-.03,1.57.84,2.08v.05h-2.9v-.05c.87-.51.87-1.16.87-2.08v-6.53c0-.91,0-1.57-.85-2.05v-.05h2.39v.02c.06.2.13.28.24.4l.24.33,5.98,7.55v-6.2c0-.91.02-1.57-.84-2.05v-.05h2.88v.05c-.85.49-.85,1.14-.85,2.05v9.19c-1.16-.4-1.67-.93-2.39-1.87l-5.61-7.12v6.33Z"/>
        <path class="cls-1" d="M254.8,58.7c0-.75.12-1.95-.73-2.26v-.05h3.12v.05c-.82.31-.72,1.52-.72,2.26v6.17c0,.73-.1,1.93.72,2.24v.05h-3.12v-.05c.84-.3.73-1.51.73-2.24v-6.17Z"/>
        <path class="cls-1" d="M265.43,59.36c.44-1.16.99-2.5-.02-2.91v-.05h2.44l-4.32,11.27c-1.14-.76-1.52-.89-1.99-2.18l-2.47-6.69c-.31-.83-.56-1.78-1.28-2.34v-.05h2.39l-.02.2c0,.36.31,1.16.45,1.52l2.59,7.11,2.23-5.87Z"/>
        <path class="cls-1" d="M271.02,65.79l2.08.2c1.07.1,2.2-.25,3.02-.97h.05l-.74,2.15h-6.82v-.05c.84-.3.74-1.51.74-2.24v-6.17c0-.75.1-1.95-.74-2.26v-.05h5.24c.28,0,.56.04.77-.08h.05v1.92h-.05c-.51-.6-1.18-.66-1.93-.66-.58,0-1.15.02-1.67.12v3.05h1.94c.27,0,.52,0,.72-.1h.04v1.74h-.04c-.26-.47-.95-.46-1.45-.46h-1.21v3.88Z"/>
        <path class="cls-1" d="M280.82,56.39c2.19,0,3.38,1.15,3.38,2.64s-1.26,2.58-2.6,2.88l2.36,2.97c.68.85,1.71,1.69,2.65,2.29h-1.51c-.87,0-1.4-.22-1.9-.83l-2-2.47-1.51-2.3c1.31-.2,2.83-.8,2.83-2.34,0-1.18-1.02-1.86-2.11-1.81-.38.01-.74.06-1.12.13v7.34c0,.75-.1,1.94.73,2.24v.05h-3.12v-.05c.84-.3.71-1.51.71-2.24v-6.17c0-.75.13-1.95-.71-2.26v-.05h3.89Z"/>
        <path class="cls-1" d="M292.66,58.34c-.65-.65-1.65-1.02-2.58-1.02s-2.11.35-2.11,1.48c0,2.24,5.64,2.21,5.64,5.24,0,1.75-1.84,3.38-4.39,3.38-1.01,0-2-.14-2.94-.49l-.48-2.05c.97.83,2.31,1.36,3.59,1.36.94,0,2.35-.55,2.35-1.71,0-2.55-5.64-2.09-5.64-5.56,0-2.06,2.11-2.85,4.11-2.85.83,0,1.66.11,2.45.36v1.85Z"/>
        <path class="cls-1" d="M295.54,58.7c0-.75.12-1.95-.72-2.26v-.05h3.1v.05c-.81.31-.71,1.52-.71,2.26v6.17c0,.73-.1,1.93.71,2.24v.05h-3.1v-.05c.82-.3.72-1.51.72-2.24v-6.17Z"/>
        <path class="cls-1" d="M303.77,65.03c0,.94,0,1.57.86,2.08v.05h-3.25v-.05c.82-.31.72-1.51.72-2.24v-7.3h-1.44c-.7,0-1.44.18-1.95.66h-.05l.57-1.96h.05c.19.08.41.08.62.11h6.52c.28,0,.54-.01.76-.11h.04l-.52,1.96h-.05c-.21-.57-.88-.66-1.41-.66h-1.48v7.46Z"/>
        <path class="cls-1" d="M312.2,65.03c0,.99,0,1.48.84,2.08v.05h-3.19v-.05c.8-.41.68-1.47.68-2.24v-2.43l-2.71-4.37c-.44-.72-.77-1.27-1.56-1.69h1.49c.52,0,1.01.12,1.22.46l2.62,4.27,2.03-3.04c.28-.41.66-1.19-.26-1.64v-.05h2.86l-4.02,6.06v2.58Z"/>
      </g>
      <g>
        <path class="cls-1" d="M215.17,19.68h-3.44v-8.36h-4.14v21.67c-1.42,1.52-3.8,1.43-3.8,1.43h-11.63c-.17,0-.3-.14-.3-.31v-16.93s12.45,0,12.45,0v-3.35h-16.6s0,20.28,0,20.28c0,2.01,1.63,3.62,3.65,3.62h12.32s2.03.19,3.9-.88v11.67h4.14v-25.49h3.44v25.49h4.13V11.31h-4.13v8.36Z"/>
        <g>
          <polygon class="cls-1" points="91.66 36.03 107.36 36.03 107.36 48.5 111.5 48.5 111.5 36.03 127.14 36.03 127.14 32.69 91.66 32.69 91.66 36.03"/>
          <path class="cls-1" d="M99.52,29.28h19.75c2.02,0,3.65-1.63,3.65-3.65v-13.99s-4.13,0-4.13,0v5.66h-18.79v-5.66h-4.14v13.99c0,2.02,1.64,3.65,3.65,3.65ZM118.79,20.64v5c0,.17-.14.31-.31.31h-18.16c-.17,0-.31-.14-.31-.31v-5s18.78,0,18.78,0Z"/>
        </g>
        <g>
          <polygon class="cls-1" points="169.98 11.3 165.84 11.3 165.84 38.3 169.98 38.3 169.98 23.01 175.47 23.01 175.47 19.67 169.98 19.67 169.98 11.3"/>
          <path class="cls-1" d="M148.63,44.35v-10.02h-4.14v10.02c0,2.01,1.63,3.64,3.64,3.64h21.85v-3.33h-21.05c-.17,0-.31-.14-.31-.31Z"/>
          <path class="cls-1" d="M151.47,15.74v-3.61h-4.13v3.61c0,10.68-10.23,12.88-10.93,13.02l2.79,2.79c2.47-.77,7.75-2.9,10.21-7.57,2.45,4.66,7.72,6.79,10.19,7.56l2.79-2.79c-.86-.17-10.91-2.42-10.91-13.02Z"/>
        </g>
        <g>
          <polygon class="cls-1" points="301.87 27.16 297.78 27.16 297.78 41.61 292.79 41.61 292.79 27.16 288.71 27.16 288.71 41.61 280 41.61 280 44.92 314.59 44.92 314.59 41.61 301.87 41.61 301.87 27.16"/>
          <path class="cls-1" d="M306.89,27.68c0,5.87-1.46,9.27-1.46,9.27h4.14s1.43-3.4,1.43-9.27v-14.66h0s-27.34,0-27.34,0v3.3h23.25v11.36Z"/>
        </g>
        <g>
          <polygon class="cls-1" points="264.63 19.67 264.63 11.31 260.48 11.31 260.48 33.23 264.63 33.23 264.63 23.02 270.13 23.02 270.13 19.67 264.63 19.67"/>
          <polygon class="cls-1" points="264.62 34.87 238.41 34.87 238.41 38.22 260.48 38.22 260.48 48.5 264.63 48.5 264.63 34.89 264.62 34.89 264.62 34.87"/>
          <path class="cls-1" d="M254.14,23.24c0-1.97-.74-3.78-1.98-5.21h5.11v-3.37h-10.48v-4.17h-4.15v4.17h-10.47v3.37h5.1c-1.24,1.44-1.99,3.24-1.99,5.21,0,4.7,4.23,8.51,9.44,8.51s9.44-3.81,9.44-8.51ZM239.44,23.21c0-2.86,2.35-5.17,5.26-5.17s5.27,2.32,5.27,5.17-2.36,5.17-5.27,5.17-5.26-2.32-5.26-5.17Z"/>
        </g>
      </g>
    </g>
  </g>
</svg>